<?xml version="1.0" encoding="UTF-8" standalone="no"?>
<!-- Created with Inkscape (http://www.inkscape.org/) -->

<svg
   xmlns:dc="http://purl.org/dc/elements/1.1/"
   xmlns:cc="http://creativecommons.org/ns#"
   xmlns:rdf="http://www.w3.org/1999/02/22-rdf-syntax-ns#"
   xmlns:svg="http://www.w3.org/2000/svg"
   xmlns="http://www.w3.org/2000/svg"
   xmlns:sodipodi="http://sodipodi.sourceforge.net/DTD/sodipodi-0.dtd"
   xmlns:inkscape="http://www.inkscape.org/namespaces/inkscape"
   width="176.38"
   height="28.58"
   id="svg2"
   version="1.1"
   inkscape:version="0.47 r22583"
   sodipodi:docname="New document 1">
  <defs
     id="defs4">
    <inkscape:perspective
       sodipodi:type="inkscape:persp3d"
       inkscape:vp_x="0 : 526.18109 : 1"
       inkscape:vp_y="0 : 1000 : 0"
       inkscape:vp_z="744.09448 : 526.18109 : 1"
       inkscape:persp3d-origin="372.04724 : 350.78739 : 1"
       id="perspective10" />
    <clipPath
       id="clipPath3056"
       clipPathUnits="userSpaceOnUse">
      <path
         id="path3058"
         d="m 385.542,1072.469 1404,0 0,-735.36 -1404,0 0,735.36 z" />
    </clipPath>
    <clipPath
       id="clipPath3048"
       clipPathUnits="userSpaceOnUse">
      <path
         id="path3050"
         d="m 66.446,708.239 c 0,0 -12,0 -12,-12 l 0,-224.239 c 0,0 0,-12 12,-12 l 480.19,0 c 0,0 12,0 12,12 l 0,224.239 c 0,0 0,12 -12,12 l -480.19,0 z" />
    </clipPath>
    <clipPath
       id="clipPath2840"
       clipPathUnits="userSpaceOnUse">
      <path
         id="path2842"
         d="m -612,873 1224,0 0,-954 -1224,0 0,954 z" />
    </clipPath>
    <clipPath
       id="clipPath2832"
       clipPathUnits="userSpaceOnUse">
      <path
         id="path2834"
         d="M 0,0 612,0 612,792 0,792 0,0 z" />
    </clipPath>
    <inkscape:perspective
       id="perspective2824"
       inkscape:persp3d-origin="0.5 : 0.33333333 : 1"
       inkscape:vp_z="1 : 0.5 : 1"
       inkscape:vp_y="0 : 1000 : 0"
       inkscape:vp_x="0 : 0.5 : 1"
       sodipodi:type="inkscape:persp3d" />
    <inkscape:perspective
       id="perspective4038"
       inkscape:persp3d-origin="0.5 : 0.33333333 : 1"
       inkscape:vp_z="1 : 0.5 : 1"
       inkscape:vp_y="0 : 1000 : 0"
       inkscape:vp_x="0 : 0.5 : 1"
       sodipodi:type="inkscape:persp3d" />
  </defs>
  <sodipodi:namedview
     id="base"
     pagecolor="#ffffff"
     bordercolor="#666666"
     borderopacity="1.0"
     inkscape:pageopacity="0.0"
     inkscape:pageshadow="2"
     inkscape:zoom="7.1676151"
     inkscape:cx="80.279743"
     inkscape:cy="23.614188"
     inkscape:document-units="px"
     inkscape:current-layer="layer1"
     showgrid="false"
     inkscape:window-width="1680"
     inkscape:window-height="1000"
     inkscape:window-x="-8"
     inkscape:window-y="-8"
     inkscape:window-maximized="1" />
  <metadata
     id="metadata7">
    <rdf:RDF>
      <cc:Work
         rdf:about="">
        <dc:format>image/svg+xml</dc:format>
        <dc:type
           rdf:resource="http://purl.org/dc/dcmitype/StillImage" />
        <dc:title></dc:title>
      </cc:Work>
    </rdf:RDF>
  </metadata>
  <g
     inkscape:label="Layer 1"
     inkscape:groupmode="layer"
     id="layer1"
     transform="translate(-421.38393,-595.64236)">
    <path
       d="m 467.20679,607.09369 c -0.16,0.1825 -0.57,0.205 -0.73125,0.045 -0.38625,-1.43375 -1.41125,-3.32625 -4.4175,-3.32625 -2.89375,0 -5.81,2.05125 -5.81,6.72125 0,4.8525 3.03,7.22125 5.97,7.22125 2.86875,0 4.1225,-1.915 4.76,-3.39375 0.205,-0.20625 0.57125,-0.115 0.68375,0.09 -0.15875,1.52625 -0.775,3.03 -1.0925,3.4625 -0.27375,0.0475 -0.54875,0.1375 -0.7975,0.205 -0.50125,0.16125 -2.075,0.54875 -3.55375,0.54875 -2.25375,0 -4.1925,-0.45625 -5.83125,-1.5275 -1.84625,-1.20625 -3.23625,-3.28 -3.23625,-6.26625 0,-2.6625 1.18375,-4.73625 2.86875,-6.03625 1.6875,-1.275 3.9875,-1.935 6.2875,-1.935 1.3,0 2.87,0.22625 3.9425,0.50125 0.27375,0.0675 0.4325,0.09 0.6375,0.135 0.045,0.525 0.0913,1.86875 0.32,3.555"
       style="fill:#F7FFF7;fill-opacity:1;fill-rule:nonzero;stroke:none"
       id="path2900" />
    <path
       d="m 472.43679,615.50994 c 0,0.845 0.0337,1.455 0.2875,1.74375 0.20125,0.23625 0.47375,0.37125 1.8275,0.37125 1.8775,0 2.14875,-0.085 2.92875,-1.82625 0.16875,-0.0862 0.43875,-0.035 0.52375,0.1 -0.1375,0.71125 -0.5075,1.99625 -0.71125,2.45375 -0.35625,-0.0175 -0.8975,-0.0338 -1.59125,-0.0338 -0.6775,-0.0163 -1.5225,-0.0163 -2.47,-0.0163 l -1.76125,0 c -0.8625,0 -1.70875,0.0163 -2.41875,0.05 -0.13625,-0.0675 -0.185,-0.40625 -0.0337,-0.49125 l 0.50625,-0.0838 c 0.7975,-0.1025 0.94875,-0.1525 0.94875,-1.9125 l 0,-6.29625 c 0,-1.76 -0.15125,-1.81 -0.94875,-1.92875 l -0.4725,-0.0675 c -0.11875,-0.085 -0.11875,-0.4225 0.0337,-0.48875 0.845,0.0325 1.6075,0.0488 2.385,0.0488 0.745,0 1.50625,-0.0163 2.25125,-0.0488 0.15375,0.0663 0.17,0.40375 0.0337,0.48875 l -0.3725,0.0675 c -0.79375,0.11875 -0.94625,0.16875 -0.94625,1.92875 l 0,5.94125 z"
       style="fill:#F7FFF7;fill-opacity:1;fill-rule:nonzero;stroke:none"
       id="path2902" />
    <path
       d="m 480.28804,609.56869 c 0,-1.7925 -0.15375,-1.84375 -0.94875,-1.9625 l -0.26875,-0.0337 c -0.11875,-0.1175 -0.1025,-0.4225 0.0325,-0.48875 0.32125,0.015 0.675,0.0325 1.05,0.0325 0.37125,0.0163 0.76,0.0163 1.1325,0.0163 l 3.23375,0 c 1.08125,0 2.06375,-0.0163 2.285,-0.0488 0.0662,0.285 0.16875,1.6225 0.27,2.35 -0.0675,0.135 -0.4075,0.17 -0.54125,0.0688 -0.2725,-0.9825 -0.52625,-1.405 -1.0675,-1.54125 -0.38875,-0.11875 -0.89625,-0.1525 -1.35375,-0.1525 l -1.13375,0 c -0.7275,0 -0.7275,0.0338 -0.7275,1 l 0,2.8575 c 0,0.4425 0.0175,0.4575 0.4075,0.4575 l 0.81125,0 c 1.4725,0 1.76,-0.015 1.87875,-0.74375 l 0.1175,-0.575 c 0.135,-0.11875 0.4575,-0.11875 0.54125,0.0163 -0.0175,0.45875 -0.05,1.06625 -0.05,1.69375 0,0.6425 0.0325,1.235 0.05,1.775 -0.0838,0.12 -0.40625,0.12 -0.54125,0.0175 l -0.1175,-0.67625 c -0.11875,-0.71125 -0.40625,-0.745 -1.87875,-0.745 l -0.81125,0 c -0.39,0 -0.4075,0.0338 -0.4075,0.45625 l 0,2.15 c 0,0.8625 0.0338,1.4725 0.2875,1.76125 0.20375,0.23625 0.4925,0.37125 1.9125,0.37125 2.15,0.0325 2.5225,-0.4575 3.115,-1.82625 0.15,-0.12 0.44,-0.0688 0.54,0.1 -0.1,0.71125 -0.47125,1.99625 -0.71125,2.45375 -0.37125,-0.0175 -0.91375,-0.0338 -1.6225,-0.0338 -0.71125,-0.0163 -1.5575,-0.0163 -2.55625,-0.0163 l -1.93,0 c -0.745,0 -1.77625,0.0163 -2.53875,0.05 -0.135,-0.0675 -0.15,-0.3725 -0.0312,-0.49125 l 0.62375,-0.0675 c 0.795,-0.085 0.94875,-0.13625 0.94875,-1.92875 l 0,-6.29625 z"
       style="fill:#F7FFF7;fill-opacity:1;fill-rule:nonzero;stroke:none"
       id="path2904" />
    <path
       d="m 492.28554,614.15494 c -0.43875,0 -0.42375,0 -0.57375,0.4575 l -0.69375,2.03 c -0.34125,0.99875 -0.27375,1.05 0.355,1.135 l 0.48875,0.0838 c 0.12,0.11875 0.1025,0.42375 -0.0337,0.49125 -0.54,-0.0338 -1.1,-0.0338 -1.7925,-0.05 -0.56,0 -1.08375,0.0163 -1.67625,0.05 -0.11875,-0.085 -0.13375,-0.33875 -0.0163,-0.49125 l 0.50625,-0.0838 c 0.4925,-0.0688 0.6775,-0.22125 0.93125,-0.77875 0.2025,-0.44 0.475,-1.1525 0.83,-2.065 l 2.32,-6.025 c 0.21625,-0.54 0.37125,-0.9475 0.32,-1.235 0.5925,-0.1175 1.15125,-0.8125 1.18625,-0.8125 0.1325,0 0.21625,0.0512 0.2875,0.135 0.27,0.7625 0.48875,1.5575 0.75875,2.31875 l 2.43875,7.09 c 0.38875,1.135 0.4725,1.2525 1.335,1.40625 l 0.255,0.05 c 0.13625,0.11875 0.13625,0.40625 0.0175,0.49125 -0.695,-0.0338 -1.3225,-0.05 -2.2025,-0.05 -0.7275,0 -1.47,0.0325 -2.0625,0.05 -0.135,-0.085 -0.15125,-0.38875 -0.0513,-0.49125 l 0.3725,-0.05 c 0.61125,-0.0675 0.65875,-0.17 0.44125,-0.89875 l -0.79625,-2.3 c -0.17,-0.4575 -0.22,-0.4575 -0.695,-0.4575 l -2.25,0 z m 2.03,-0.76125 c 0.475,0 0.5425,-0.035 0.40875,-0.44 l -0.71375,-2.03 c -0.28375,-0.89625 -0.3875,-1.21875 -0.4725,-1.33625 l -0.035,0 c -0.065,0.1175 -0.20125,0.54125 -0.50625,1.33625 l -0.71125,1.97875 c -0.18625,0.49125 -0.135,0.49125 0.27,0.49125 l 1.76,0 z"
       style="fill:#F7FFF7;fill-opacity:1;fill-rule:nonzero;stroke:none"
       id="path2906" />
    <path
       d="m 501.72804,609.67119 c 0,-1.625 -0.0175,-1.82875 -0.8125,-1.9125 l -0.44,-0.0512 c -0.1175,-0.1175 -0.1175,-0.38875 0.0187,-0.4725 1.065,-0.1025 2.50375,-0.15125 3.89125,-0.15125 1.32125,0 2.47125,0.1675 3.21375,0.57375 0.865,0.4575 1.4925,1.25125 1.4925,2.47125 0,1.55625 -1.20375,2.33375 -2.0325,2.6725 -0.10125,0.0512 -0.0675,0.1875 0,0.28875 1.355,2.28375 2.2,3.72375 2.99625,4.3825 0.47375,0.405 0.96375,0.5075 1.1675,0.525 0.0825,0.0688 0.0825,0.2525 0.0337,0.3375 -0.2025,0.0512 -0.525,0.10125 -1.11875,0.10125 -1.62375,0 -2.5025,-0.65875 -3.53625,-2.23375 -0.45625,-0.71 -0.93,-1.64 -1.335,-2.3 -0.305,-0.50875 -0.4925,-0.57625 -1.05,-0.57625 -0.5075,0 -0.52375,0.0163 -0.52375,0.3725 l 0,2.16625 c 0,1.7925 0.15125,1.84375 0.94625,1.94625 l 0.3725,0.05 c 0.1175,0.11875 0.10125,0.42375 -0.0337,0.49125 -0.74375,-0.0338 -1.50625,-0.05 -2.25125,-0.05 -0.74625,0 -1.50625,0.0163 -2.28375,0.05 -0.13625,-0.0675 -0.18625,-0.3725 -0.0337,-0.49125 l 0.37125,-0.05 c 0.79625,-0.1025 0.9475,-0.15375 0.9475,-1.94625 l 0,-6.19375 z m 1.965,2.4375 c 0,0.54 0,0.57375 0.81125,0.57375 1.65875,0 2.42,-0.81125 2.42,-2.41875 0,-1.3375 -0.8625,-2.505 -2.335,-2.505 -0.88,0 -0.89625,0.05 -0.89625,0.83 l 0,3.52 z"
       style="fill:#F7FFF7;fill-opacity:1;fill-rule:nonzero;stroke:none"
       id="path2908" />
    <path
       d="m 525.82804,607.09369 c -0.15875,0.1825 -0.57,0.205 -0.72875,0.045 -0.3875,-1.43375 -1.41125,-3.32625 -4.42,-3.32625 -2.8925,0 -5.80875,2.05125 -5.80875,6.72125 0,4.8525 3.03,7.22125 5.96875,7.22125 2.87,0 4.125,-1.915 4.76,-3.39375 0.205,-0.20625 0.5725,-0.115 0.68625,0.09 -0.16,1.52625 -0.7775,3.03 -1.09375,3.4625 -0.275,0.0475 -0.5475,0.1375 -0.7975,0.205 -0.50375,0.16125 -2.0725,0.54875 -3.555,0.54875 -2.25625,0 -4.1925,-0.45625 -5.83125,-1.5275 -1.84625,-1.20625 -3.23375,-3.28 -3.23375,-6.26625 0,-2.6625 1.18375,-4.73625 2.86875,-6.03625 1.68625,-1.275 3.98625,-1.935 6.2875,-1.935 1.3,0 2.87125,0.22625 3.9425,0.50125 0.2725,0.0675 0.4325,0.09 0.635,0.135 0.0475,0.525 0.0913,1.86875 0.32,3.555"
       style="fill:#F7FFF7;fill-opacity:1;fill-rule:nonzero;stroke:none"
       id="path2910" />
    <path
       d="m 531.51679,612.88619 c -0.86375,0 -0.915,0.0338 -0.915,0.48875 l 0,2.49 c 0,1.7925 0.15375,1.84375 0.94875,1.92875 l 0.5075,0.0675 c 0.11875,0.11875 0.10125,0.42375 -0.0337,0.49125 -0.8825,-0.0338 -1.64125,-0.05 -2.38625,-0.05 -0.74625,0 -1.505,0.0163 -2.14875,0.05 -0.13625,-0.0675 -0.1525,-0.3725 -0.035,-0.49125 l 0.23875,-0.0337 c 0.79625,-0.11875 0.94625,-0.17 0.94625,-1.9625 l 0,-6.29625 c 0,-1.7925 -0.15,-1.84375 -0.94625,-1.945 l -0.3725,-0.0512 c -0.12125,-0.085 -0.10375,-0.4225 0.0325,-0.48875 0.74375,0.0325 1.53875,0.0488 2.285,0.0488 0.745,0 1.50375,-0.0163 2.165,-0.0488 0.135,0.0663 0.15375,0.40375 0.035,0.48875 l -0.2875,0.0512 c -0.795,0.10125 -0.94875,0.1525 -0.94875,1.945 l 0,2.04875 c 0,0.475 0.0512,0.50625 0.915,0.50625 l 3.9575,0 c 0.865,0 0.91625,-0.0312 0.91625,-0.50625 l 0,-2.04875 c 0,-1.7925 -0.1525,-1.84375 -0.9475,-1.945 l -0.37125,-0.0512 c -0.12,-0.085 -0.1025,-0.4225 0.0325,-0.48875 0.77875,0.0325 1.53875,0.0488 2.28375,0.0488 0.745,0 1.50625,-0.0163 2.18375,-0.0488 0.13625,0.0663 0.15375,0.40375 0.035,0.48875 l -0.305,0.0512 c -0.7975,0.10125 -0.95,0.1525 -0.95,1.945 l 0,6.29625 c 0,1.7925 0.1525,1.84375 0.95,1.94625 l 0.3725,0.05 c 0.1175,0.11875 0.10125,0.42375 -0.0337,0.49125 -0.74625,-0.0338 -1.5075,-0.05 -2.2525,-0.05 -0.77625,0 -1.53875,0.0163 -2.28375,0.05 -0.135,-0.0675 -0.1525,-0.3725 -0.0325,-0.49125 l 0.37125,-0.05 c 0.795,-0.1025 0.9475,-0.15375 0.9475,-1.94625 l 0,-2.49 c 0,-0.455 -0.0513,-0.48875 -0.91625,-0.48875 l -3.9575,0 z"
       style="fill:#F7FFF7;fill-opacity:1;fill-rule:nonzero;stroke:none"
       id="path2912" />
    <path
       d="m 544.22554,614.15494 c -0.44,0 -0.42375,0 -0.57625,0.4575 l -0.69375,2.03 c -0.34,0.99875 -0.27,1.05 0.35625,1.135 l 0.49,0.0838 c 0.1175,0.11875 0.1025,0.42375 -0.0337,0.49125 -0.5425,-0.0338 -1.09875,-0.0338 -1.79375,-0.05 -0.55875,0 -1.0825,0.0163 -1.67625,0.05 -0.11625,-0.085 -0.1325,-0.33875 -0.015,-0.49125 l 0.5075,-0.0838 c 0.49,-0.0688 0.67625,-0.22125 0.92875,-0.77875 0.20375,-0.44 0.47625,-1.1525 0.83125,-2.065 l 2.3175,-6.025 c 0.2225,-0.54 0.3725,-0.9475 0.32125,-1.235 0.5925,-0.1175 1.15125,-0.8125 1.185,-0.8125 0.13625,0 0.22125,0.0512 0.2875,0.135 0.27,0.7625 0.49125,1.5575 0.76125,2.31875 l 2.4375,7.09 c 0.38875,1.135 0.475,1.2525 1.33625,1.40625 l 0.255,0.05 c 0.135,0.11875 0.135,0.40625 0.0175,0.49125 -0.695,-0.0338 -1.32125,-0.05 -2.2,-0.05 -0.73,0 -1.4725,0.0325 -2.065,0.05 -0.13625,-0.085 -0.15125,-0.38875 -0.0513,-0.49125 l 0.37375,-0.05 c 0.6075,-0.0675 0.65875,-0.17 0.43625,-0.89875 l -0.79375,-2.3 c -0.1675,-0.4575 -0.21875,-0.4575 -0.69375,-0.4575 l -2.25,0 z m 2.03,-0.76125 c 0.47375,0 0.54125,-0.035 0.40625,-0.44 l -0.71,-2.03 c -0.2875,-0.89625 -0.39,-1.21875 -0.475,-1.33625 l -0.0325,0 c -0.0688,0.1175 -0.20375,0.54125 -0.5075,1.33625 l -0.71125,1.97875 c -0.1875,0.49125 -0.13625,0.49125 0.27,0.49125 l 1.76,0 z"
       style="fill:#F7FFF7;fill-opacity:1;fill-rule:nonzero;stroke:none"
       id="path2914" />
    <path
       d="m 562.63804,615.42494 c 0,0.50875 0,2.58875 0.05,2.97875 -0.13625,0.18625 -0.3725,0.2525 -0.57625,0.23625 -0.27,-0.355 -0.76125,-0.93125 -1.9775,-2.31875 l -3.9625,-4.5175 c -1.1,-1.23625 -1.64125,-1.87875 -1.92875,-2.1325 -0.0487,0 -0.0487,0.18625 -0.0487,1.0825 l 0,3.3 c 0,1.27 0.015,2.825 0.30375,3.33375 0.1525,0.25375 0.43875,0.35625 0.8625,0.42375 l 0.37125,0.05 c 0.15375,0.11875 0.13625,0.44125 -0.0337,0.49125 -0.62625,-0.0338 -1.285,-0.05 -1.92875,-0.05 -0.71,0 -1.1675,0.0163 -1.75875,0.05 -0.1375,-0.085 -0.17,-0.3725 -0.0337,-0.49125 l 0.3725,-0.0838 c 0.32,-0.0525 0.62625,-0.12 0.74375,-0.39 0.21875,-0.525 0.21875,-1.99625 0.21875,-3.33375 l 0,-4.00875 c 0,-1.3225 0.0175,-1.5925 -0.5575,-2.08375 -0.18625,-0.1525 -0.65875,-0.2875 -0.8975,-0.3375 l -0.25375,-0.0512 c -0.1175,-0.1025 -0.1025,-0.44 0.0675,-0.48875 0.64375,0.0663 1.575,0.0488 1.9975,0.0488 0.355,0 0.76125,-0.0163 1.1675,-0.0488 0.2875,0.725 2.13375,2.8575 2.725,3.50125 l 1.69125,1.8275 c 0.7125,0.77875 2.28375,2.5725 2.4525,2.6725 0.0525,-0.05 0.0525,-0.135 0.0525,-0.40375 l 0,-3.30125 c 0,-1.26875 -0.0163,-2.82625 -0.3225,-3.33375 -0.15,-0.25375 -0.42,-0.35625 -0.845,-0.4225 l -0.3889,-0.0512 c -0.1525,-0.1175 -0.13625,-0.44 0.0325,-0.48875 0.66125,0.0325 1.28875,0.0488 1.9475,0.0488 0.7275,0 1.1675,-0.0163 1.77625,-0.0488 0.135,0.0838 0.17,0.37125 0.035,0.48875 l -0.38875,0.085 c -0.3225,0.05 -0.61,0.11875 -0.72875,0.38875 -0.23625,0.525 -0.23625,1.99875 -0.23625,3.33375 l 0,4.045 z"
       style="fill:#F7FFF7;fill-opacity:1;fill-rule:nonzero;stroke:none"
       id="path2916" />
    <path
       d="m 575.83679,615.42494 c 0,0.50875 0,2.58875 0.05,2.97875 -0.13375,0.18625 -0.37125,0.2525 -0.575,0.23625 -0.27125,-0.355 -0.76,-0.93125 -1.98,-2.31875 l -3.96,-4.5175 c -1.09875,-1.23625 -1.64,-1.87875 -1.93,-2.1325 -0.05,0 -0.05,0.18625 -0.05,1.0825 l 0,3.3 c 0,1.27 0.0188,2.825 0.305,3.33375 0.1525,0.25375 0.44,0.35625 0.86375,0.42375 l 0.3725,0.05 c 0.15125,0.11875 0.135,0.44125 -0.035,0.49125 -0.625,-0.0338 -1.285,-0.05 -1.93,-0.05 -0.70875,0 -1.16375,0.0163 -1.75875,0.05 -0.13625,-0.085 -0.17,-0.3725 -0.0337,-0.49125 l 0.3725,-0.0838 c 0.32125,-0.0525 0.625,-0.12 0.745,-0.39 0.22,-0.525 0.22,-1.99625 0.22,-3.33375 l 0,-4.00875 c 0,-1.3225 0.015,-1.5925 -0.5575,-2.08375 -0.19,-0.1525 -0.66125,-0.2875 -0.89875,-0.3375 l -0.25375,-0.0512 c -0.11875,-0.1025 -0.10125,-0.44 0.0662,-0.48875 0.64375,0.0663 1.575,0.0488 1.99875,0.0488 0.355,0 0.76125,-0.0163 1.1675,-0.0488 0.28625,0.725 2.13375,2.8575 2.725,3.50125 l 1.69125,1.8275 c 0.71125,0.77875 2.28625,2.5725 2.455,2.6725 0.05,-0.05 0.05,-0.135 0.05,-0.40375 l 0,-3.30125 c 0,-1.26875 -0.0162,-2.82625 -0.32125,-3.33375 -0.1525,-0.25375 -0.42375,-0.35625 -0.84625,-0.4225 l -0.38875,-0.0512 c -0.1525,-0.1175 -0.13625,-0.44 0.0312,-0.48875 0.6625,0.0325 1.2875,0.0488 1.94875,0.0488 0.7275,0 1.1675,-0.0163 1.7775,-0.0488 0.13375,0.0838 0.17,0.37125 0.0325,0.48875 l -0.38875,0.085 c -0.32125,0.05 -0.60875,0.11875 -0.72875,0.38875 -0.23625,0.525 -0.23625,1.99875 -0.23625,3.33375 l 0,4.045 z"
       style="fill:#F7FFF7;fill-opacity:1;fill-rule:nonzero;stroke:none"
       id="path2918" />
    <path
       d="m 579.39054,609.56869 c 0,-1.7925 -0.15125,-1.84375 -0.94625,-1.9625 l -0.2725,-0.0337 c -0.11875,-0.1175 -0.10125,-0.4225 0.035,-0.48875 0.32125,0.015 0.6775,0.0325 1.04875,0.0325 0.37,0.0163 0.76125,0.0163 1.135,0.0163 l 3.23125,0 c 1.08125,0 2.065,-0.0163 2.2825,-0.0488 0.07,0.285 0.17,1.6225 0.2725,2.35 -0.0675,0.135 -0.40625,0.17 -0.5425,0.0688 -0.27,-0.9825 -0.525,-1.405 -1.065,-1.54125 -0.39,-0.11875 -0.8975,-0.1525 -1.35375,-0.1525 l -1.13375,0 c -0.7275,0 -0.7275,0.0338 -0.7275,1 l 0,2.8575 c 0,0.4425 0.0162,0.4575 0.405,0.4575 l 0.8125,0 c 1.4725,0 1.76125,-0.015 1.87875,-0.74375 l 0.11875,-0.575 c 0.13375,-0.11875 0.4575,-0.11875 0.54,0.0163 -0.015,0.45875 -0.0488,1.06625 -0.0488,1.69375 0,0.6425 0.0337,1.235 0.0488,1.775 -0.0825,0.12 -0.40625,0.12 -0.54,0.0175 l -0.11875,-0.6764 c -0.1175,-0.71125 -0.40625,-0.745 -1.87875,-0.745 l -0.8125,0 c -0.38875,0 -0.405,0.0338 -0.405,0.45625 l 0,2.15 c 0,0.8625 0.0337,1.4725 0.2875,1.76125 0.2025,0.23625 0.49125,0.37125 1.91125,0.37125 2.15,0.0325 2.52125,-0.4575 3.11625,-1.82625 0.15,-0.12 0.4375,-0.0688 0.53875,0.1 -0.10125,0.71125 -0.4725,1.99625 -0.71,2.45375 -0.3725,-0.0175 -0.9125,-0.0338 -1.625,-0.0338 -0.71125,-0.0163 -1.5575,-0.0163 -2.555,-0.0163 l -1.9275,0 c -0.745,0 -1.78,0.0163 -2.54,0.05 -0.13625,-0.0675 -0.1525,-0.3725 -0.0325,-0.49125 l 0.62625,-0.0675 c 0.795,-0.085 0.94625,-0.13625 0.94625,-1.92875 l 0,-6.29625 z"
       style="fill:#F7FFF7;fill-opacity:1;fill-rule:nonzero;stroke:none"
       id="path2920" />
    <path
       d="m 591.16804,615.50994 c 0,0.845 0.035,1.455 0.2875,1.74375 0.205,0.23625 0.47375,0.37125 1.82875,0.37125 1.87875,0 2.1475,-0.085 2.9275,-1.82625 0.16875,-0.0862 0.44125,-0.035 0.52375,0.1 -0.135,0.71125 -0.5075,1.99625 -0.71,2.45375 -0.35625,-0.0175 -0.89625,-0.0338 -1.5925,-0.0338 -0.675,-0.0163 -1.52125,-0.0163 -2.4675,-0.0163 l -1.76,0 c -0.86375,0 -1.71125,0.0163 -2.42125,0.05 -0.135,-0.0675 -0.185,-0.40625 -0.0338,-0.49125 l 0.5075,-0.0838 c 0.795,-0.1025 0.94625,-0.1525 0.94625,-1.9125 l 0,-6.29625 c 0,-1.76 -0.15125,-1.81 -0.94625,-1.92875 l -0.47375,-0.0675 c -0.12,-0.085 -0.12,-0.4225 0.0337,-0.48875 0.84625,0.0325 1.60875,0.0488 2.3875,0.0488 0.7425,0 1.50375,-0.0163 2.25125,-0.0488 0.15,0.0663 0.1675,0.40375 0.0325,0.48875 l -0.37375,0.0675 c -0.795,0.11875 -0.9475,0.16875 -0.9475,1.92875 l 0,5.94125 z"
       style="fill:#F7FFF7;fill-opacity:1;fill-rule:nonzero;stroke:none"
       id="path2922" />
    <path
       d="m 444.94179,598.53369 c 0,0 1.1475,1.785 -3.38125,2.55125 0,0 1.02125,-1.4675 -2.04,-1.4675 -3.06125,0 -13.2675,2.42375 -13.2675,9.44 0,7.0175 10.20625,4.08375 10.20625,4.08375 0,0 7.335,-2.48875 12.24625,-7.84625 l 0.1275,-0.14 0,-4.47 c 0,-1.29375 -1.04875,-2.3425 -2.3425,-2.3425 l -1.62875,0 c 0.065,0.115 0.08,0.19125 0.08,0.19125"
       style="fill:#000a18;fill-opacity:1;fill-rule:nonzero;stroke:none"
       id="path2924" />
    <path
       d="m 422.42554,609.31244 c 0,0 1.21125,-6.69625 11.545,-10.3325 0.68875,-0.2425 1.3325,-0.455 1.93875,-0.6375 l -11.205,0 c -1.29375,0 -2.34375,1.04875 -2.34375,2.3425 l 0,8.99375 c 0.0337,-0.2325 0.065,-0.36625 0.065,-0.36625"
       style="fill:#000a18;fill-opacity:1;fill-rule:nonzero;stroke:none"
       id="path2926" />
    <path
       d="m 448.64179,608.86744 c 0,0 -8.995,8.92875 -18.5625,8.92875 -5.75625,0 -7.3575,-3.0725 -7.71875,-5.51875 l 0,4.82625 c 0,1.29125 1.05,2.34125 2.34375,2.34125 l 21.78625,0 c 1.29375,0 2.3425,-1.05 2.3425,-2.34125 l 0,-8.47375 -0.19125,0.2375 z"
       style="fill:#000a18;fill-opacity:1;fill-rule:nonzero;stroke:none"
       id="path2928" />
    <path
       d="m 444.94304,598.53619 c 0,0 1.14625,1.78625 -3.3825,2.55125 0,0 1.02125,-1.46625 -2.04,-1.46625 -3.06125,0 -13.2675,2.42375 -13.2675,9.44125 0,7.015 10.20625,4.08125 10.20625,4.08125 0,0 7.33625,-2.48625 12.24875,-7.845 l 0.125,-0.14 0,-4.47125 c 0,-1.2925 -1.04875,-2.3425 -2.3425,-2.3425 l -1.62625,0 c 0.0638,0.11625 0.0788,0.19125 0.0788,0.19125"
       style="fill:#10427a;fill-opacity:1;fill-rule:nonzero;stroke:none"
       id="path2930" />
  </g>
</svg>
